<?xml version="1.0" standalone="no"?>
<!DOCTYPE svg PUBLIC "-//W3C//DTD SVG 20010904//EN"
 "http://www.w3.org/TR/2001/REC-SVG-20010904/DTD/svg10.dtd">
<svg version="1.0" xmlns="http://www.w3.org/2000/svg"
 width="348.000000pt" height="348.000000pt" viewBox="0 0 348.000000 348.000000"
 preserveAspectRatio="xMidYMid meet">

<g transform="translate(0.000000,348.000000) scale(0.100000,-0.100000)"
fill="#000000" stroke="none">
<path d="M1615 3280 c-36 -8 -73 -26 -100 -50 -11 -9 -58 -25 -105 -34 -246
-51 -496 -186 -692 -375 -152 -145 -263 -303 -343 -487 -18 -42 -47 -90 -64
-108 -60 -62 -75 -139 -42 -211 48 -104 156 -143 259 -94 80 39 121 141 92
229 -12 37 -11 43 24 117 141 296 408 532 715 633 122 39 171 46 209 26 43
-22 124 -20 172 4 93 48 126 179 67 268 -41 62 -124 98 -192 82z"/>
<path d="M2456 3038 c-89 -24 -151 -135 -126 -227 16 -60 73 -119 129 -134 36
-10 65 -31 142 -105 235 -225 353 -499 353 -822 0 -200 -36 -349 -127 -525
-89 -171 -269 -368 -359 -392 -105 -28 -166 -129 -138 -232 33 -124 185 -179
292 -105 37 26 78 93 78 128 0 9 46 63 103 119 209 209 337 442 399 730 31
146 31 408 0 554 -62 287 -188 520 -394 726 -66 66 -108 115 -108 127 0 61
-68 140 -137 159 -44 13 -55 12 -107 -1z"/>
<path d="M1635 2753 c-345 -43 -645 -258 -790 -566 -60 -126 -87 -237 -92
-380 -8 -194 20 -334 99 -492 128 -255 343 -435 623 -521 84 -26 102 -28 270
-28 213 0 281 14 440 93 155 77 153 50 19 243 l-116 167 -61 -34 c-86 -46
-174 -68 -282 -68 -160 0 -300 59 -415 173 -114 115 -170 252 -170 417 0 168
52 294 170 414 153 155 356 213 565 159 42 -11 102 -33 133 -50 36 -19 59 -27
66 -20 5 5 58 78 117 162 l108 153 -22 19 c-36 30 -166 92 -252 119 -127 40
-287 56 -410 40z"/>
<path d="M2445 2184 c-49 -30 -100 -62 -112 -70 l-22 -14 29 -57 c46 -92 64
-175 64 -293 0 -115 -23 -213 -72 -303 -14 -26 -23 -49 -21 -51 13 -12 214
-136 220 -136 14 0 59 85 89 169 88 239 76 496 -32 724 -23 48 -44 87 -47 87
-3 0 -46 -25 -96 -56z"/>
<path d="M1622 2194 c-203 -54 -342 -237 -342 -449 0 -316 314 -539 613 -436
243 84 371 355 283 601 -79 218 -327 346 -554 284z m193 -273 c76 -35 115 -95
115 -177 0 -78 -57 -157 -129 -179 -78 -24 -174 9 -217 75 -104 157 62 359
231 281z"/>
<path d="M343 1505 c-61 -37 -88 -86 -88 -160 0 -70 26 -122 81 -159 24 -16
48 -50 78 -109 206 -403 594 -701 1026 -787 36 -7 74 -21 85 -31 11 -10 42
-27 70 -39 44 -19 53 -20 93 -8 119 35 182 158 133 263 -22 48 -54 79 -103
100 -50 20 -90 19 -147 -6 l-48 -20 -79 20 c-151 39 -302 110 -425 202 -140
104 -305 302 -373 450 -19 41 -23 62 -19 99 14 119 -68 210 -189 210 -39 0
-64 -7 -95 -25z"/>
</g>
</svg>
